<?xml version="1.0" encoding="utf-8"?>
<!-- Generator: Adobe Illustrator 23.0.2, SVG Export Plug-In . SVG Version: 6.00 Build 0)  -->
<svg version="1.1" id="Layer_1" xmlns="http://www.w3.org/2000/svg" xmlns:xlink="http://www.w3.org/1999/xlink" x="0px" y="0px"
	 viewBox="0 0 16 16" style="enable-background:new 0 0 16 16;" xml:space="preserve">
<style type="text/css">
	.st0{fill:#FFFFB4;}
	.st1{fill:#FFFFFF;}
	.st2{fill:#676767;}
	.st3{fill:#B23A3A;}
	.st4{fill:#E56615;}
	.st5{fill:#2C3E50;}
	.st6{fill:#D05555;}
	.st7{fill:#67A45C;}
	.st8{fill:#48803E;}
	.st9{fill:#5290D2;}
	.st10{fill:#346BA9;}
	.st11{fill:#BDBDBD;}
</style>
<rect x="2" y="2" class="st0" width="12" height="12"/>
<path class="st4" d="M5.3,8.3l4.1,3.3c0.3,0.2,0.7,0,0.7-0.3V4.7c0-0.3-0.4-0.5-0.7-0.3L5.3,7.7C5.1,7.8,5.1,8.2,5.3,8.3z"/>
<path class="st4" d="M13,2c0.6,0,1,0.4,1,1v10c0,0.6-0.4,1-1,1H3c-0.6,0-1-0.4-1-1V3c0-0.6,0.4-1,1-1H13 M13,1H3C1.9,1,1,1.9,1,3v10
	c0,1.1,0.9,2,2,2h10c1.1,0,2-0.9,2-2V3C15,1.9,14.1,1,13,1L13,1z"/>
</svg>
