<?xml version="1.0" encoding="utf-8"?>
<!-- Generator: Adobe Illustrator 23.0.2, SVG Export Plug-In . SVG Version: 6.00 Build 0)  -->
<svg version="1.1" id="Layer_1" xmlns="http://www.w3.org/2000/svg" xmlns:xlink="http://www.w3.org/1999/xlink" x="0px" y="0px"
	 viewBox="0 0 16 16" style="enable-background:new 0 0 16 16;" xml:space="preserve">
<style type="text/css">
	.st0{fill:#FFFFB4;}
	.st1{fill:#FFFFFF;}
	.st2{fill:#676767;}
	.st3{fill:#B23A3A;}
	.st4{fill:#E56615;}
	.st5{fill:#2C3E50;}
	.st6{fill:#D05555;}
	.st7{fill:#67A45C;}
	.st8{fill:#48803E;}
	.st9{fill:#5290D2;}
	.st10{fill:#346BA9;}
	.st11{fill:#BDBDBD;}
</style>
<path class="st4" d="M14,0H2C0.9,0,0,0.9,0,2v12c0,1.1,0.9,2,2,2h12c1.1,0,2-0.9,2-2V2C16,0.9,15.1,0,14,0z"/>
<g>
	<path class="st1" d="M6.5,12.5c-0.3,0-0.5-0.1-0.7-0.3L2.3,8.7c-0.4-0.4-0.4-1,0-1.4s1-0.4,1.4,0l2.8,2.8l5.8-5.8
		c0.4-0.4,1-0.4,1.4,0s0.4,1,0,1.4l-6.5,6.5C7,12.4,6.8,12.5,6.5,12.5z"/>
</g>
</svg>
