<?xml version="1.0" encoding="utf-8"?>
<!-- Generator: Adobe Illustrator 23.0.2, SVG Export Plug-In . SVG Version: 6.00 Build 0)  -->
<svg version="1.1" id="Layer_1" xmlns="http://www.w3.org/2000/svg" xmlns:xlink="http://www.w3.org/1999/xlink" x="0px" y="0px"
	 viewBox="0 0 16 16" style="enable-background:new 0 0 16 16;" xml:space="preserve">
<style type="text/css">
	.st0{fill:#FFFFB4;}
	.st1{fill:#FFFFFF;}
	.st2{fill:#676767;}
	.st3{fill:#B23A3A;}
	.st4{fill:#E56615;}
	.st5{fill:#2C3E50;}
	.st6{fill:#D05555;}
	.st7{fill:#67A45C;}
	.st8{fill:#48803E;}
	.st9{fill:#5290D2;}
	.st10{fill:#346BA9;}
	.st11{fill:#BDBDBD;}
</style>
<g>
	<path class="st4" d="M6.4,4c-0.2-0.9-1-1.5-1.9-1.5S2.8,3.1,2.6,4H1v1h1.6c0.2,0.9,1,1.5,1.9,1.5S6.2,5.9,6.4,5H13V4H6.4z M4.5,5.5
		c-0.6,0-1-0.4-1-1s0.4-1,1-1s1,0.4,1,1S5.1,5.5,4.5,5.5z"/>
	<path class="st4" d="M4.5,10.5c-0.9,0-1.7,0.6-1.9,1.5H1v1h1.6c0.2,0.9,1,1.5,1.9,1.5s1.7-0.6,1.9-1.5H13v-1H6.4
		C6.2,11.1,5.4,10.5,4.5,10.5z M4.5,13.5c-0.6,0-1-0.4-1-1s0.4-1,1-1s1,0.4,1,1S5.1,13.5,4.5,13.5z"/>
	<path class="st4" d="M9.5,6.5C8.6,6.5,7.8,7.1,7.6,8H1v1h6.6c0.2,0.9,1,1.5,1.9,1.5s1.7-0.6,1.9-1.5H13V8h-1.6
		C11.2,7.1,10.4,6.5,9.5,6.5z M9.5,9.5c-0.6,0-1-0.4-1-1s0.4-1,1-1s1,0.4,1,1S10.1,9.5,9.5,9.5z"/>
</g>
</svg>
