<?xml version="1.0" encoding="utf-8"?>
<!-- Generator: Adobe Illustrator 23.0.2, SVG Export Plug-In . SVG Version: 6.00 Build 0)  -->
<svg version="1.1" id="Layer_1" xmlns="http://www.w3.org/2000/svg" xmlns:xlink="http://www.w3.org/1999/xlink" x="0px" y="0px"
	 viewBox="0 0 16 14" style="enable-background:new 0 0 16 14;" xml:space="preserve">
<style type="text/css">
	.st0{fill:#1E1E1E;}
	.st1{fill:#FFFFFF;}
	.st2{fill:#3FB6E0;}
	.st3{fill:#BBBBBB;}
	.st4{fill:#D05555;}
	.st5{fill:#969696;}
	.st6{fill:#67A45C;}
	.st7{fill:#5290D2;}
</style>
<rect x="1" y="1" class="st0" width="12" height="12"/>
<path class="st3" d="M12,1c0.6,0,1,0.4,1,1v10c0,0.6-0.4,1-1,1H2c-0.6,0-1-0.4-1-1V2c0-0.6,0.4-1,1-1H12 M12,0H2C0.9,0,0,0.9,0,2v10
	c0,1.1,0.9,2,2,2h10c1.1,0,2-0.9,2-2V2C14,0.9,13.1,0,12,0L12,0z"/>
<rect x="3" y="6" class="st3" width="2" height="2"/>
<rect x="6" y="6" class="st3" width="2" height="2"/>
<rect x="9" y="6" class="st3" width="2" height="2"/>
</svg>
