<?xml version="1.0" encoding="utf-8"?>
<!-- Generator: Adobe Illustrator 23.0.2, SVG Export Plug-In . SVG Version: 6.00 Build 0)  -->
<svg version="1.1" id="Layer_1" xmlns="http://www.w3.org/2000/svg" xmlns:xlink="http://www.w3.org/1999/xlink" x="0px" y="0px"
	 viewBox="0 0 16 16" style="enable-background:new 0 0 16 16;" xml:space="preserve">
<style type="text/css">
	.st0{fill:#E281B0;}
	.st1{fill:#FFFFFF;}
	.st2{fill:#C00054;}
	.st3{fill:#69002F;}
	.st4{fill:#676767;}
	.st5{fill:#B23A3A;}
	.st6{fill:#D05555;}
	.st7{fill:#67A45C;}
	.st8{fill:#48803E;}
	.st9{fill:#5290D2;}
	.st10{fill:#346BA9;}
	.st11{fill:#BDBDBD;}
</style>
<g>
	<path class="st4" d="M14,13.5v-1v-2v-1h-1H6H5v1v2v1H14z M10,10.5h3v2h-3V10.5z M6,10.5h3v2H6V10.5z"/>
	<path class="st4" d="M13,2.5H6H5v1v2v1h1h1h1h6v-1v-2v-1H13z M8,5.5H7H6v-2h3v2H8z M10,5.5v-2h3v2H10z"/>
	<rect x="8" y="6.5" class="st7" width="3" height="3"/>
	<rect x="12" y="6.5" class="st7" width="3" height="3"/>
	<path class="st8" d="M15,5.5H8H7v1v3v1h1h7h1v-1v-3v-1H15z M8,9.5v-3h3v3H8z M15,9.5h-3v-3h3V9.5z"/>
</g>
<polygon class="st7" points="5.5,8 3,5.5 3,7 1,7 1,9 3,9 3,10.5 "/>
</svg>
