<?xml version="1.0" encoding="utf-8"?>
<!-- Generator: Adobe Illustrator 23.0.2, SVG Export Plug-In . SVG Version: 6.00 Build 0)  -->
<svg version="1.1" id="Layer_1" xmlns="http://www.w3.org/2000/svg" xmlns:xlink="http://www.w3.org/1999/xlink" x="0px" y="0px"
	 viewBox="0 0 16 16" style="enable-background:new 0 0 16 16;" xml:space="preserve">
<style type="text/css">
	.st0{fill:#E281B0;}
	.st1{fill:#FFFFFF;}
	.st2{fill:#C00054;}
	.st3{fill:#69002F;}
	.st4{fill:#676767;}
	.st5{fill:#B23A3A;}
	.st6{fill:#D05555;}
	.st7{fill:#67A45C;}
	.st8{fill:#48803E;}
	.st9{fill:#5290D2;}
	.st10{fill:#346BA9;}
	.st11{fill:#BDBDBD;}
</style>
<g>
	<path class="st0" d="M12.1,9.5c0,0.2-0.1,0.4-0.2,0.6c-0.3,0.4-0.7,0.4-1.1,0L8,7.5l-2.7,2.6c-0.4,0.4-0.7,0.4-1.1,0
		C4,10,3.9,9.8,3.9,9.5C3.9,9.3,4,9.1,4.2,9l3.3-3.1C7.6,5.7,7.8,5.6,8,5.6c0.2,0,0.4,0.1,0.6,0.2L11.8,9C12,9.1,12.1,9.3,12.1,9.5z
		"/>
</g>
</svg>
