<?xml version="1.0" encoding="utf-8"?>
<!-- Generator: Adobe Illustrator 23.0.2, SVG Export Plug-In . SVG Version: 6.00 Build 0)  -->
<svg version="1.1" id="Layer_1" xmlns="http://www.w3.org/2000/svg" xmlns:xlink="http://www.w3.org/1999/xlink" x="0px" y="0px"
	 viewBox="0 0 16 16" style="enable-background:new 0 0 16 16;" xml:space="preserve">
<style type="text/css">
	.st0{fill:#E281B0;}
	.st1{fill:#FFFFFF;}
	.st2{fill:#C00054;}
	.st3{fill:#69002F;}
	.st4{fill:#676767;}
	.st5{fill:#B23A3A;}
	.st6{fill:#D05555;}
	.st7{fill:#67A45C;}
	.st8{fill:#48803E;}
	.st9{fill:#5290D2;}
	.st10{fill:#346BA9;}
	.st11{fill:#BDBDBD;}
</style>
<g>
	<path class="st0" d="M10.2,7.5c0.1,0.1,0.2,0.3,0.2,0.6c0,0.2-0.1,0.4-0.2,0.5L7,11.8c-0.1,0.1-0.3,0.2-0.6,0.2
		c-0.2,0-0.4-0.1-0.6-0.2c-0.3-0.3-0.3-0.7,0-1.1L8.5,8L5.9,5.3c-0.3-0.4-0.3-0.8,0-1.1C6,4,6.2,3.9,6.4,3.9C6.7,3.9,6.9,4,7,4.2
		L10.2,7.5z"/>
</g>
</svg>
