<?xml version="1.0" encoding="utf-8"?>
<!-- Generator: Adobe Illustrator 23.0.2, SVG Export Plug-In . SVG Version: 6.00 Build 0)  -->
<svg version="1.1" id="Layer_1" xmlns="http://www.w3.org/2000/svg" xmlns:xlink="http://www.w3.org/1999/xlink" x="0px" y="0px"
	 viewBox="0 0 16 16" style="enable-background:new 0 0 16 16;" xml:space="preserve">
<style type="text/css">
	.st0{fill:#D6DAF7;}
	.st1{fill:#FFFFFF;}
	.st2{fill:#1B2A8F;}
	.st3{fill:#52B0EB;}
	.st4{fill:#B23A3A;}
	.st5{fill:#676767;}
	.st6{fill:#2C3E50;}
	.st7{fill:#D05555;}
	.st8{fill:#67A45C;}
	.st9{fill:#48803E;}
	.st10{fill:#5290D2;}
	.st11{fill:#346BA9;}
	.st12{fill:#BDBDBD;}
</style>
<rect x="2" y="6" class="st5" width="2" height="1"/>
<rect x="5" y="6" class="st5" width="2" height="1"/>
<rect x="8" y="6" class="st5" width="2" height="1"/>
<rect x="11" y="6" class="st5" width="2" height="1"/>
<rect x="2" y="8" class="st5" width="2" height="1"/>
<rect x="5" y="8" class="st5" width="2" height="1"/>
<rect x="8" y="8" class="st5" width="2" height="1"/>
<rect x="11" y="8" class="st5" width="2" height="1"/>
<rect x="2" y="10" class="st5" width="2" height="1"/>
<rect x="5" y="10" class="st5" width="2" height="1"/>
<rect x="8" y="10" class="st5" width="2" height="1"/>
<rect x="11" y="10" class="st5" width="2" height="1"/>
<rect x="2" y="12" class="st5" width="2" height="1"/>
<rect x="5" y="12" class="st5" width="2" height="1"/>
<rect x="8" y="12" class="st5" width="2" height="1"/>
<rect x="11" y="12" class="st5" width="2" height="1"/>
<path class="st5" d="M13.5,1H12V0h-1v1H4V0H3v1H1.5C0.7,1,0,1.7,0,2.5v11C0,14.3,0.7,15,1.5,15h12c0.8,0,1.5-0.7,1.5-1.5v-11
	C15,1.7,14.3,1,13.5,1z M13,2v1h-1V2H13z M10,2h1v1h-1V2z M5,2v1H4V2H5z M2,2h1v1H2V2z M14,13.5c0,0.3-0.2,0.5-0.5,0.5h-12
	C1.2,14,1,13.8,1,13.5V5h13V13.5z"/>
</svg>
