<?xml version="1.0" encoding="utf-8"?>
<!-- Generator: Adobe Illustrator 23.0.2, SVG Export Plug-In . SVG Version: 6.00 Build 0)  -->
<svg version="1.1" id="Layer_1" xmlns="http://www.w3.org/2000/svg" xmlns:xlink="http://www.w3.org/1999/xlink" x="0px" y="0px"
	 viewBox="0 0 16 16" style="enable-background:new 0 0 16 16;" xml:space="preserve">
<style type="text/css">
	.st0{fill:#D6DAF7;}
	.st1{fill:#FFFFFF;}
	.st2{fill:#1B2A8F;}
	.st3{fill:#52B0EB;}
	.st4{fill:#B23A3A;}
	.st5{fill:#676767;}
	.st6{fill:#2C3E50;}
	.st7{fill:#D05555;}
	.st8{fill:#67A45C;}
	.st9{fill:#48803E;}
	.st10{fill:#5290D2;}
	.st11{fill:#346BA9;}
	.st12{fill:#BDBDBD;}
</style>
<g>
	<path class="st3" d="M8,2.1c1.6,0,3,0.6,4.2,1.7s1.7,2.5,1.7,4.2s-0.6,3-1.7,4.2C11,13.3,9.6,13.9,8,13.9s-3-0.6-4.2-1.7
		C2.7,11,2.1,9.6,2.1,8s0.6-3,1.7-4.2C5,2.7,6.4,2.1,8,2.1z M11.4,5.8l-1.2-1.2L8,6.8L5.9,4.6L4.6,5.8L6.8,8l-2.2,2.1l1.2,1.2L8,9.2
		l2.2,2.1l1.2-1.2L9.2,8L11.4,5.8z"/>
</g>
</svg>
