<?xml version="1.0" encoding="utf-8"?>
<!-- Generator: Adobe Illustrator 23.0.2, SVG Export Plug-In . SVG Version: 6.00 Build 0)  -->
<svg version="1.1" id="Layer_1" xmlns="http://www.w3.org/2000/svg" xmlns:xlink="http://www.w3.org/1999/xlink" x="0px" y="0px"
	 viewBox="0 0 14 14" style="enable-background:new 0 0 14 14;" xml:space="preserve">
<style type="text/css">
	.st0{fill:#1E1E1E;}
	.st1{fill:#969696;}
	.st2{fill:#E56615;}
	.st3{fill:#F2F2F2;}
	.st4{fill:#D05555;}
	.st5{fill:#67A45C;}
	.st6{fill:#5290D2;}
	.st7{fill:#FFFFFF;}
	.st8{fill:#676767;}
</style>
<path class="st1" d="M8.4,7l4.3-4.3c0.4-0.4,0.4-1,0-1.4s-1-0.4-1.4,0L7,5.6L2.7,1.3c-0.4-0.4-1-0.4-1.4,0s-0.4,1,0,1.4L5.6,7
	l-4.3,4.3c-0.4,0.4-0.4,1,0,1.4C1.5,12.9,1.7,13,2,13s0.5-0.1,0.7-0.3L7,8.4l4.3,4.3c0.2,0.2,0.5,0.3,0.7,0.3s0.5-0.1,0.7-0.3
	c0.4-0.4,0.4-1,0-1.4L8.4,7z"/>
</svg>
