<?xml version="1.0" encoding="utf-8"?>
<!-- Generator: Adobe Illustrator 23.0.2, SVG Export Plug-In . SVG Version: 6.00 Build 0)  -->
<svg version="1.1" id="Layer_1" xmlns="http://www.w3.org/2000/svg" xmlns:xlink="http://www.w3.org/1999/xlink" x="0px" y="0px"
	 viewBox="0 0 16 16" style="enable-background:new 0 0 16 16;" xml:space="preserve">
<style type="text/css">
	.st0{fill:#1E1E1E;}
	.st1{fill:#969696;}
	.st2{fill:#E56615;}
	.st3{fill:#F2F2F2;}
	.st4{fill:#D05555;}
	.st5{fill:#67A45C;}
	.st6{fill:#5290D2;}
	.st7{fill:#FFFFFF;}
	.st8{fill:#676767;}
</style>
<g>
	<g>
		<path class="st1" d="M10,13.5v-1v-2v-1H9H2H1.5H1v3v1H10z M5,12.5H2v-2h3V12.5z M9,12.5H6v-2h3V12.5z"/>
		<path class="st1" d="M9,2.5H2H1v1v2v1h1h6h1h1v-1v-2v-1H9z M2,5.5v-2h3v2H2z M9,5.5H8H6v-2h3V5.5z"/>
	</g>
	<rect x="1" y="6.5" class="st0" width="3" height="3"/>
	<rect x="5" y="6.5" class="st0" width="3" height="3"/>
	<path class="st6" d="M8,5.5H1H0v1v3v1h1h7h1v-1v-3v-1H8z M1,9.5v-3h3v3H1z M8,9.5H5v-3h3V9.5z"/>
	<polygon class="st6" points="11.9,8.4 10.5,7 9.8,7.7 11.2,9.1 11.9,9.8 12.6,9.1 15.4,6.3 14.7,5.6 	"/>
</g>
</svg>
