<?xml version="1.0" encoding="utf-8"?>
<!-- Generator: Adobe Illustrator 23.0.2, SVG Export Plug-In . SVG Version: 6.00 Build 0)  -->
<svg version="1.1" id="Layer_1" xmlns="http://www.w3.org/2000/svg" xmlns:xlink="http://www.w3.org/1999/xlink" x="0px" y="0px"
	 viewBox="0 0 14 14" style="enable-background:new 0 0 14 14;" xml:space="preserve">
<style type="text/css">
	.st0{fill:#BDF6F5;}
	.st1{fill:#FFFFFF;}
	.st2{fill:#8EB2DD;}
	.st3{fill:#B23A3A;}
	.st4{fill:#3093C6;}
	.st5{fill:#2C3E50;}
	.st6{fill:#D05555;}
	.st7{fill:#67A45C;}
	.st8{fill:#48803E;}
	.st9{fill:#5290D2;}
	.st10{fill:#346BA9;}
	.st11{fill:#676767;}
	.st12{fill:#BDBDBD;}
	.st13{fill:#6893C6;}
</style>
<path class="st2" d="M8.4,7l4.3-4.3c0.4-0.4,0.4-1,0-1.4s-1-0.4-1.4,0L7,5.6L2.7,1.3c-0.4-0.4-1-0.4-1.4,0s-0.4,1,0,1.4L5.6,7
	l-4.3,4.3c-0.4,0.4-0.4,1,0,1.4C1.5,12.9,1.7,13,2,13s0.5-0.1,0.7-0.3L7,8.4l4.3,4.3c0.2,0.2,0.5,0.3,0.7,0.3s0.5-0.1,0.7-0.3
	c0.4-0.4,0.4-1,0-1.4L8.4,7z"/>
</svg>
