<?xml version="1.0" encoding="utf-8"?>
<!-- Generator: Adobe Illustrator 23.0.2, SVG Export Plug-In . SVG Version: 6.00 Build 0)  -->
<svg version="1.1" id="Layer_1" xmlns="http://www.w3.org/2000/svg" xmlns:xlink="http://www.w3.org/1999/xlink" x="0px" y="0px"
	 viewBox="0 0 40 20" style="enable-background:new 0 0 40 20;" xml:space="preserve">
<style type="text/css">
	.st0{fill:#BDF6F5;}
	.st1{fill:#FFFFFF;}
	.st2{fill:#8EB2DD;}
	.st3{fill:#B23A3A;}
	.st4{fill:#3093C6;}
	.st5{fill:#2C3E50;}
	.st6{fill:#D05555;}
	.st7{fill:#67A45C;}
	.st8{fill:#48803E;}
	.st9{fill:#5290D2;}
	.st10{fill:#346BA9;}
	.st11{fill:#676767;}
	.st12{fill:#BDBDBD;}
	.st13{fill:#6893C6;}
</style>
<path class="st3" d="M35.5,16.7L21.9,10l13.7-6.7c0.4-0.2,0.6-0.7,0.4-1.1c-0.2-0.4-0.7-0.6-1.1-0.4L20,9.1L5.2,1.9
	c-0.4-0.2-0.9,0-1.1,0.4c-0.2,0.4,0,0.9,0.4,1.1L18.1,10L4.5,16.7c-0.4,0.2-0.6,0.7-0.4,1.1c0.1,0.3,0.4,0.5,0.7,0.5
	c0.1,0,0.2,0,0.4-0.1L20,10.9l14.8,7.2c0.1,0.1,0.2,0.1,0.4,0.1c0.3,0,0.6-0.2,0.7-0.5C36.1,17.3,35.9,16.9,35.5,16.7z"/>
</svg>
