<?xml version="1.0" encoding="utf-8"?>
<!-- Generator: Adobe Illustrator 23.0.2, SVG Export Plug-In . SVG Version: 6.00 Build 0)  -->
<svg version="1.1" id="Layer_1" xmlns="http://www.w3.org/2000/svg" xmlns:xlink="http://www.w3.org/1999/xlink" x="0px" y="0px"
	 viewBox="0 0 16 16" style="enable-background:new 0 0 16 16;" xml:space="preserve">
<style type="text/css">
	.st0{fill:#BDF6F5;}
	.st1{fill:#FFFFFF;}
	.st2{fill:#8EB2DD;}
	.st3{fill:#B23A3A;}
	.st4{fill:#3093C6;}
	.st5{fill:#2C3E50;}
	.st6{fill:#D05555;}
	.st7{fill:#67A45C;}
	.st8{fill:#48803E;}
	.st9{fill:#5290D2;}
	.st10{fill:#346BA9;}
	.st11{fill:#676767;}
	.st12{fill:#BDBDBD;}
	.st13{fill:#6893C6;}
</style>
<g>
	<path class="st12" d="M10,9H9H7H6H4H3v1v2v1h3h4h3v-1v-2V9h-1H10z M6,12H4v-2h2V12z M9,12H7v-2h2V12z M12,12h-2v-2h2V12z"/>
	<path class="st12" d="M12,3h-2H9H7H6H4H3v1v2v1h1h1l0,0h1h1h1l0,0h2h3V6V4V3H12z M6,6H5l0,0H4V4h2V6z M9,6H8l0,0H7V4h2V6z M12,6h-2
		V4h2V6z"/>
</g>
<path class="st11" d="M14,6h-2h-1H5H4H2H1v1v2v1h1h2h1h6h1h2h1V9V7V6H14z M4,9H2V7h2V9z M11,9H5V7h6V9z M14,9h-2V7h2V9z"/>
<path d="M12,9V7V6h-1H5H4v1v2v1h1h6h1V9z M11,9H5V7h6V9z"/>
</svg>
