<?xml version="1.0" encoding="utf-8"?>
<!-- Generator: Adobe Illustrator 23.0.2, SVG Export Plug-In . SVG Version: 6.00 Build 0)  -->
<svg version="1.1" id="Layer_1" xmlns="http://www.w3.org/2000/svg" xmlns:xlink="http://www.w3.org/1999/xlink" x="0px" y="0px"
	 viewBox="0 0 16 16" style="enable-background:new 0 0 16 16;" xml:space="preserve">
<style type="text/css">
	.st0{fill:#BDF6F5;}
	.st1{fill:#FFFFFF;}
	.st2{fill:#8EB2DD;}
	.st3{fill:#B23A3A;}
	.st4{fill:#3093C6;}
	.st5{fill:#2C3E50;}
	.st6{fill:#D05555;}
	.st7{fill:#67A45C;}
	.st8{fill:#48803E;}
	.st9{fill:#5290D2;}
	.st10{fill:#346BA9;}
	.st11{fill:#676767;}
	.st12{fill:#BDBDBD;}
	.st13{fill:#6893C6;}
</style>
<g>
	<polygon class="st7" points="6,7.5 4,7.5 4,5.5 3,5.5 3,7.5 1,7.5 1,8.5 3,8.5 3,10.5 4,10.5 4,8.5 6,8.5 	"/>
	<g>
		<path class="st2" d="M15,13.5v-1v-2v-1h-1H7H6v1v2v1H15z M7,10.5h3v2H7V10.5z M11,12.5v-2h3v2H11z"/>
		<path class="st2" d="M14,2.5H7H6v1v2v1h1h1h1h6v-1v-2v-1H14z M9,5.5H8H7v-2h3v2H9z M11,5.5v-2h3v2H11z"/>
	</g>
	<rect x="8" y="6.5" class="st7" width="3" height="3"/>
	<rect x="12" y="6.5" class="st7" width="3" height="3"/>
	<path class="st8" d="M15,5.5H8H7v1v3v1h1h7h1v-1v-3v-1H15z M8,9.5v-3h3v3H8z M15,9.5h-3v-3h3V9.5z"/>
</g>
</svg>
