<?xml version="1.0" encoding="utf-8"?>
<!-- Generator: Adobe Illustrator 23.0.2, SVG Export Plug-In . SVG Version: 6.00 Build 0)  -->
<svg version="1.1" id="Layer_1" xmlns="http://www.w3.org/2000/svg" xmlns:xlink="http://www.w3.org/1999/xlink" x="0px" y="0px"
	 viewBox="0 0 16 14" style="enable-background:new 0 0 16 14;" xml:space="preserve">
<style type="text/css">
	.st0{fill:#7C99AB;}
	.st1{fill:#FFFFFF;}
	.st2{fill:#BDF6F5;}
	.st3{fill:#B23A3A;}
	.st4{fill:#4F5A6F;}
	.st5{fill:#2C3E50;}
	.st6{fill:#D05555;}
	.st7{fill:#67A45C;}
	.st8{fill:#48803E;}
	.st9{fill:#5290D2;}
	.st10{fill:#346BA9;}
</style>
<rect x="1" y="1" class="st1" width="12" height="12"/>
<path class="st0" d="M3.4,4.9h7.1c0.4,0,0.6,0.5,0.3,0.7L7.3,9.3c-0.2,0.2-0.4,0.2-0.6,0L3.1,5.7C2.9,5.4,3,4.9,3.4,4.9z"/>
<path class="st0" d="M12,1c0.6,0,1,0.4,1,1v10c0,0.6-0.4,1-1,1H2c-0.6,0-1-0.4-1-1V2c0-0.6,0.4-1,1-1H12 M12,0H2C0.9,0,0,0.9,0,2v10
	c0,1.1,0.9,2,2,2h10c1.1,0,2-0.9,2-2V2C14,0.9,13.1,0,12,0L12,0z"/>
</svg>
