<?xml version="1.0" encoding="utf-8"?>
<!-- Generator: Adobe Illustrator 23.0.2, SVG Export Plug-In . SVG Version: 6.00 Build 0)  -->
<svg version="1.1" id="Layer_1" xmlns="http://www.w3.org/2000/svg" xmlns:xlink="http://www.w3.org/1999/xlink" x="0px" y="0px"
	 viewBox="0 0 14 14" style="enable-background:new 0 0 14 14;" xml:space="preserve">
<style type="text/css">
	.st0{fill:#7C99AB;}
	.st1{fill:#FFFFFF;}
	.st2{fill:#BDF6F5;}
	.st3{fill:#B23A3A;}
	.st4{fill:#4F5A6F;}
	.st5{fill:#2C3E50;}
	.st6{fill:#D05555;}
	.st7{fill:#67A45C;}
	.st8{fill:#48803E;}
	.st9{fill:#5290D2;}
	.st10{fill:#346BA9;}
</style>
<g>
	<path class="st0" d="M12,4H2C1.4,4,1,3.6,1,3s0.4-1,1-1h10c0.6,0,1,0.4,1,1S12.6,4,12,4z"/>
</g>
<g>
	<path class="st0" d="M12,8H2C1.4,8,1,7.6,1,7s0.4-1,1-1h10c0.6,0,1,0.4,1,1S12.6,8,12,8z"/>
</g>
<g>
	<path class="st0" d="M12,12H2c-0.6,0-1-0.4-1-1s0.4-1,1-1h10c0.6,0,1,0.4,1,1S12.6,12,12,12z"/>
</g>
</svg>
