<?xml version="1.0" encoding="utf-8"?>
<!-- Generator: Adobe Illustrator 23.0.2, SVG Export Plug-In . SVG Version: 6.00 Build 0)  -->
<svg version="1.1" id="Layer_1" xmlns="http://www.w3.org/2000/svg" xmlns:xlink="http://www.w3.org/1999/xlink" x="0px" y="0px"
	 viewBox="0 0 16 16" style="enable-background:new 0 0 16 16;" xml:space="preserve">
<style type="text/css">
	.st0{fill:#7C99AB;}
	.st1{fill:#FFFFFF;}
	.st2{fill:#BDF6F5;}
	.st3{fill:#B23A3A;}
	.st4{fill:#4F5A6F;}
	.st5{fill:#2C3E50;}
	.st6{fill:#D05555;}
	.st7{fill:#67A45C;}
	.st8{fill:#48803E;}
	.st9{fill:#5290D2;}
	.st10{fill:#346BA9;}
</style>
<polygon class="st3" points="14.8,5.5 13.2,7.2 11.5,5.5 10.7,6.3 12.3,8 10.7,9.7 11.5,10.5 13.2,8.8 14.8,10.5 15.7,9.7 14,8 
	15.7,6.3 "/>
<g>
	<path class="st0" d="M10,13.5v-1v-2v-1H9H2H1.5H1v3v1H10z M5,12.5H2v-2h3V12.5z M9,12.5H6v-2h3V12.5z"/>
	<path class="st0" d="M9,2.5H2H1v1v2v1h1h6h1h1v-1v-2v-1H9z M2,5.5v-2h3v2H2z M9,5.5H8H6v-2h3V5.5z"/>
</g>
<rect x="1" y="6.5" class="st6" width="3" height="3"/>
<rect x="5" y="6.5" class="st6" width="3" height="3"/>
<path class="st3" d="M8,5.5H1H0v1v3v1h1h7h1v-1v-3v-1H8z M1,9.5v-3h3v3H1z M8,9.5H5v-3h3V9.5z"/>
</svg>
