<?xml version="1.0" encoding="utf-8"?>
<!-- Generator: Adobe Illustrator 23.0.2, SVG Export Plug-In . SVG Version: 6.00 Build 0)  -->
<svg version="1.1" id="Layer_1" xmlns="http://www.w3.org/2000/svg" xmlns:xlink="http://www.w3.org/1999/xlink" x="0px" y="0px"
	 viewBox="0 0 16 16" style="enable-background:new 0 0 16 16;" xml:space="preserve">
<style type="text/css">
	.st0{fill:#7C99AB;}
	.st1{fill:#FFFFFF;}
	.st2{fill:#BDF6F5;}
	.st3{fill:#B23A3A;}
	.st4{fill:#4F5A6F;}
	.st5{fill:#2C3E50;}
	.st6{fill:#D05555;}
	.st7{fill:#67A45C;}
	.st8{fill:#48803E;}
	.st9{fill:#5290D2;}
	.st10{fill:#346BA9;}
</style>
<g>
	<path class="st0" d="M9.5,3.9c0.2,0,0.4,0.1,0.6,0.2c0.4,0.3,0.4,0.7,0,1.1L7.5,8l2.6,2.7c0.4,0.4,0.4,0.8,0,1.1
		C10,12,9.8,12.1,9.6,12.1c-0.2,0-0.4-0.1-0.6-0.2L5.8,8.5C5.7,8.4,5.6,8.2,5.6,8c0-0.2,0.1-0.4,0.2-0.6C7.9,5.3,9,4.2,9,4.2
		C9.1,4,9.3,3.9,9.5,3.9z"/>
</g>
</svg>
